<?xml version="1.0" encoding="UTF-8"?>
<svg version="1.1" xmlns="http://www.w3.org/2000/svg" width="5000" height="5000">

<path d="M0 0 C121.11 0 242.22 0 367 0 C367 97.02 367 194.04 367 294 C370.3 294.33 373.6 294.66 377 295 C380.40688204 295.52767434 383.7948611 296.08221752 387.1875 296.6875 C388.1667041 296.86120117 389.1459082 297.03490234 390.15478516 297.21386719 C393.43789676 297.80190239 396.71908233 298.39984927 400 299 C401.17353027 299.21285645 402.34706055 299.42571289 403.55615234 299.64501953 C422.74361861 303.15103496 441.6413409 307.43309581 460.56103516 312.15283203 C464.06902618 313.01700418 467.58458526 313.8321397 471.10961914 314.62304688 C481.37387259 316.93279262 491.41824814 319.96353809 501.49707031 322.96533203 C505.18839699 324.05564723 508.88636185 325.1217353 512.5859375 326.18359375 C586.59132585 347.48477928 658.44182205 374.97668728 728 408 C729.06605469 408.5048291 730.13210938 409.0096582 731.23046875 409.52978516 C743.59484948 415.39382992 755.87616119 421.40848067 768.10009766 427.55957031 C776.02171446 431.53669983 784.00313938 435.37797917 792.00854492 439.18310547 C799.38827442 442.69405788 806.71329322 446.29981787 814 450 C812.26995171 453.76539923 809.99603965 457.136165 807.6875 460.5625 C807.24801025 461.21814941 806.80852051 461.87379883 806.35571289 462.54931641 C802.37741013 468.47002808 798.35012526 474.3572086 794.31567383 480.23974609 C789.64990957 487.04288824 785.01017048 493.86348479 780.375 500.6875 C775.29951615 508.15764003 770.21177219 515.61864932 765.08789062 523.05566406 C756.48606041 535.54696161 747.97098281 548.0980081 739.44677734 560.64233398 C733.20413715 569.82868637 726.94861199 579.00536232 720.6484375 588.15234375 C711.86485226 600.90600408 703.15263696 613.70842683 694.44775391 626.51586914 C684.62622778 640.96584184 674.78338056 655.40116692 664.91308594 669.81787109 C660.76804229 675.87358007 656.63273158 681.9358834 652.5 688 C647.797505 694.89983829 643.09081258 701.79675609 638.375 708.6875 C637.85156006 709.45239746 637.32812012 710.21729492 636.78881836 711.00537109 C634.03112049 715.03444472 631.27194544 719.06250218 628.51171875 723.08984375 C627.93437988 723.93264893 627.35704102 724.7754541 626.76220703 725.64379883 C625.67121339 727.23641134 624.57978032 728.82872297 623.48779297 730.4206543 C619.94987941 735.58614492 616.46174128 740.78317204 613 746 C610.30843913 744.72858729 607.97978989 743.3461281 605.62890625 741.5234375 C604.98300537 741.02577881 604.33710449 740.52812012 603.67163086 740.01538086 C602.97561768 739.47405518 602.27960449 738.93272949 601.5625 738.375 C600.03406499 737.19634114 598.50540896 736.01796886 596.9765625 734.83984375 C595.76468262 733.90374268 595.76468262 733.90374268 594.52832031 732.94873047 C587.53349801 727.55739485 580.49756894 722.21948644 573.46582031 716.87646484 C571.22110415 715.16825807 568.98120703 713.45394192 566.7421875 711.73828125 C526.50840472 681.04965744 481.00844255 658.18761426 432.9375 642.625 C432.1753418 642.37792297 431.41318359 642.13084595 430.62792969 641.87628174 C420.17797689 638.50515631 409.65999221 635.45249164 399.06582642 632.56924438 C396.91176845 631.97568755 394.76367606 631.36354048 392.61621094 630.74658203 C375.71782627 625.90182811 358.29198937 623.0548105 341 620 C340.29774292 619.87562561 339.59548584 619.75125122 338.87194824 619.62310791 C291.66444341 611.30443661 244.12084153 608.85836879 196.26275253 608.69673157 C194.04741239 608.68769343 191.83215642 608.67365895 189.61685181 608.6583252 C140.90600743 608.35086386 92.29838562 614.4604845 46 630 C45.14647949 630.28456055 44.29295898 630.56912109 43.41357422 630.86230469 C12.64764073 641.26468252 -19.06371954 656.51011036 -42.87890625 679 C-44.85708891 680.86524773 -46.90239514 682.58457204 -49 684.3125 C-71.63858779 704.2235471 -84.60874972 735.2200163 -86.87109375 764.88427734 C-87.54266676 775.90672376 -87.97093224 786.53117863 -84 797 C-83.5978125 798.1446875 -83.195625 799.289375 -82.78125 800.46875 C-75.34539719 820.8806332 -61.90431432 837.50149375 -47 853 C-46.48147461 853.54043945 -45.96294922 854.08087891 -45.42871094 854.63769531 C-39.16748506 861.1248223 -32.79284329 867.23821808 -25.71484375 872.84375 C-22.91975782 875.06373192 -20.21370606 877.36899385 -17.5 879.6875 C-5.27875753 889.87979431 7.75252519 899.10196811 21.09472656 907.76269531 C23.12734998 909.08270242 25.1535658 910.41222521 27.1796875 911.7421875 C101.04048547 960.06609664 183.088182 996.5955291 268.38989258 1029.83203125 C341.76577395 1058.43718936 416.36042611 1089.77881405 484.89941406 1128.81616211 C491.03015655 1132.2712958 497.2326847 1135.59733946 503.4453125 1138.90234375 C531.8144131 1154.0275537 559.47553083 1170.82156544 586 1189 C586.83289551 1189.5676709 587.66579102 1190.1353418 588.52392578 1190.72021484 C602.68792006 1200.39080404 616.46063478 1210.47482049 630 1221 C631.32157274 1222.02088751 632.643184 1223.04172515 633.96484375 1224.0625 C644.48224562 1232.22125635 654.65265876 1240.76400476 664.48828125 1249.734375 C666.53916227 1251.58431434 668.61395101 1253.39435156 670.70410156 1255.19921875 C674.69513747 1258.68986597 678.49437909 1262.33327075 682.24609375 1266.078125 C682.9015065 1266.73020935 683.55691925 1267.3822937 684.23219299 1268.05413818 C685.60735046 1269.42427239 686.98119255 1270.79572798 688.35375977 1272.16845703 C690.42379215 1274.23630661 692.50169673 1276.29601525 694.58007812 1278.35546875 C701.85809558 1285.60300824 708.64091056 1292.92610956 715 1301 C715.99413645 1302.1646607 716.99687266 1303.32208997 718.01171875 1304.46875 C737.70645274 1326.73847759 753.70557677 1352.00873675 768 1378 C768.63881104 1379.14202881 768.63881104 1379.14202881 769.29052734 1380.30712891 C800.51317621 1436.24010026 816.10945998 1500.50766438 821 1564 C821.09498779 1565.18424561 821.18997559 1566.36849121 821.2878418 1567.58862305 C822.1906216 1580.10950322 822.28535486 1592.63798875 822.3125 1605.1875 C822.31511841 1606.35108032 822.31773682 1607.51466064 822.32043457 1608.71350098 C822.32507616 1628.07755951 821.27967172 1647.0257961 818.54248047 1666.19238281 C818.04934463 1669.65365487 817.59996435 1673.1175842 817.16015625 1676.5859375 C811.52874826 1718.20664975 797.27420118 1760.4004535 779 1798 C778.49065918 1799.05960938 777.98131836 1800.11921875 777.45654297 1801.2109375 C756.40643649 1844.88002196 728.65405553 1884.89494516 696.04296875 1920.73828125 C694.18181575 1922.79871641 692.36828758 1924.89114318 690.5625 1927 C687.03609102 1931.058234 683.22021908 1934.79624564 679.39453125 1938.5703125 C677.38397139 1940.61039119 675.5228182 1942.67990479 673.6875 1944.875 C669.17072392 1950.13930779 663.95116911 1954.67368085 658.82519531 1959.32763672 C656.93751288 1961.05725479 655.07174232 1962.8079219 653.2109375 1964.56640625 C646.85684136 1970.57005995 640.47797667 1976.42492652 633.640625 1981.8828125 C630.9013643 1984.07908365 628.23501612 1986.34813571 625.5625 1988.625 C605.00406173 2005.76145306 582.78434815 2020.99922831 560 2035 C559.37915527 2035.38430176 558.75831055 2035.76860352 558.11865234 2036.16455078 C553.78382315 2038.84275735 549.40597641 2041.44068199 545 2044 C543.74630615 2044.72944824 543.74630615 2044.72944824 542.46728516 2045.47363281 C496.06894233 2072.31293602 447.1050481 2093.25609768 396.0625 2109.5 C394.71910553 2109.92839676 394.71910553 2109.92839676 393.34857178 2110.365448 C347.25628877 2125 347.25628877 2125 337 2125 C337 2222.02 337 2319.04 337 2419 C214.24 2419 91.48 2419 -35 2419 C-35 2326.6 -35 2234.2 -35 2139 C-39.95 2138.67 -44.9 2138.34 -50 2138 C-52.59546222 2137.69414239 -55.18774731 2137.35463794 -57.76953125 2136.94921875 C-58.73132797 2136.80107224 -58.73132797 2136.80107224 -59.71255493 2136.64993286 C-61.74687152 2136.33518699 -63.77964903 2136.01156286 -65.8125 2135.6875 C-67.2493378 2135.46319221 -68.68626991 2135.23948782 -70.12329102 2135.01635742 C-73.02115101 2134.5656683 -75.91846901 2134.11170577 -78.81542969 2133.65527344 C-82.73159436 2133.03975691 -86.65043666 2132.44302613 -90.5703125 2131.8515625 C-91.73457764 2131.67536377 -92.89884277 2131.49916504 -94.09838867 2131.31762695 C-96.24943897 2130.99222496 -98.4006328 2130.66776961 -100.55200195 2130.34448242 C-105.76874077 2129.54719827 -110.94619159 2128.65640044 -116.11499023 2127.59204102 C-118.99595428 2127.00083023 -121.88094764 2126.4321147 -124.76695251 2125.86610413 C-143.8222543 2122.11742964 -162.75993612 2117.98959504 -181.625 2113.375 C-183.00264023 2113.03977829 -183.00264023 2113.03977829 -184.40811157 2112.69778442 C-197.70180953 2109.45331432 -210.87378004 2105.86539591 -224 2102 C-224.7656427 2101.77455505 -225.5312854 2101.54911011 -226.32012939 2101.3168335 C-231.38767024 2099.81928814 -236.44636836 2098.29379336 -241.5 2096.75 C-242.2618158 2096.51733429 -243.02363159 2096.28466858 -243.80853271 2096.04495239 C-274.60065204 2086.61467165 -304.68702304 2075.42860531 -334.42138672 2063.0703125 C-336.97758345 2062.0093045 -339.53740156 2060.95742152 -342.09765625 2059.90625 C-350.26476154 2056.53422852 -358.255426 2052.99467993 -366.12109375 2048.95703125 C-370.00864209 2046.97231915 -373.95295379 2045.11455661 -377.89990234 2043.25146484 C-398.75904429 2033.39364068 -419.10161924 2022.67474307 -439 2011 C-439.66080566 2010.61424805 -440.32161133 2010.22849609 -441.00244141 2009.83105469 C-466.94756676 1994.64930986 -491.75431924 1977.6200784 -516.3046875 1960.30078125 C-519.5023104 1958.04508861 -522.71679519 1955.81670334 -525.9453125 1953.60546875 C-526.73357422 1953.06124268 -527.52183594 1952.5170166 -528.33398438 1951.95629883 C-529.81753747 1950.93232468 -531.30556614 1949.91479237 -532.79882812 1948.9050293 C-533.45560547 1948.449104 -534.11238281 1947.99317871 -534.7890625 1947.5234375 C-535.36350098 1947.13075684 -535.93793945 1946.73807617 -536.52978516 1946.33349609 C-538.35654146 1944.67661418 -539.21549268 1943.34078824 -540 1941 C-538.62977091 1938.1661171 -537.22044173 1935.73750158 -535.5 1933.125 C-534.99952148 1932.33689941 -534.49904297 1931.54879883 -533.98339844 1930.73681641 C-532.89891788 1929.03296513 -531.8071433 1927.33373949 -530.70898438 1925.63867188 C-529.01518065 1923.02343892 -527.34063114 1920.39689934 -525.671875 1917.765625 C-523.34324497 1914.09508963 -521.00785664 1910.4289932 -518.66796875 1906.765625 C-513.01686534 1897.9015045 -507.46579298 1888.97468974 -501.90429688 1880.05419922 C-498.70958414 1874.93037149 -495.51163294 1869.80856886 -492.3125 1864.6875 C-491.68609619 1863.68477051 -491.05969238 1862.68204102 -490.41430664 1861.64892578 C-486.14940468 1854.82664713 -481.86067979 1848.01984501 -477.55786133 1841.22143555 C-473.51521185 1834.82883175 -469.50511306 1828.41617392 -465.5 1822 C-458.54998787 1810.86747708 -451.55417535 1799.76460672 -444.52929688 1788.67919922 C-438.24617786 1778.76404006 -432.01827411 1768.81769049 -425.85131836 1758.82983398 C-421.82739638 1752.31933305 -417.75575637 1745.84058738 -413.66015625 1739.375 C-409.58156973 1732.93232416 -405.53727257 1726.46863168 -401.5 1720 C-395.52166969 1710.42376186 -389.51102905 1700.86867591 -383.47363281 1691.32958984 C-381.39675622 1688.04636313 -379.32345764 1684.76088245 -377.25024414 1681.4753418 C-375.73734824 1679.07895819 -374.22227498 1676.68396199 -372.70703125 1674.2890625 C-371.04794744 1671.66531433 -369.39796519 1669.03648274 -367.76171875 1666.3984375 C-367.13910156 1665.40070313 -366.51648437 1664.40296875 -365.875 1663.375 C-365.35679687 1662.53710938 -364.83859375 1661.69921875 -364.3046875 1660.8359375 C-363 1659 -363 1659 -361 1658 C-351.22054809 1664.80557449 -341.45803509 1671.63043959 -331.8125 1678.625 C-306.44952107 1697.00163614 -280.67072394 1714.75622541 -253.1640625 1729.81054688 C-250.7690158 1731.12695792 -248.38469428 1732.46180752 -246 1733.796875 C-222.41004241 1746.93062694 -197.98994612 1757.85991638 -173 1768 C-172.06833008 1768.3810791 -171.13666016 1768.7621582 -170.17675781 1769.15478516 C-120.23813114 1789.4465979 -66.35164131 1802.78664033 -13 1810 C-11.83082031 1810.1645166 -10.66164063 1810.3290332 -9.45703125 1810.49853516 C5.7707954 1812.63869467 20.99327049 1814.37894741 36.3125 1815.6875 C37.37402786 1815.77863571 37.37402786 1815.77863571 38.45700073 1815.87161255 C55.11435933 1817.28490085 71.70794896 1818.15840805 88.42578125 1818.1328125 C90.03126541 1818.13348986 91.63674946 1818.13446343 93.24223328 1818.13571167 C96.57743321 1818.13716967 99.91260601 1818.13509709 103.24780273 1818.13037109 C107.45646247 1818.1246881 111.66505881 1818.12805431 115.87371635 1818.13380337 C137.90550356 1818.15950268 159.81166916 1817.95003349 181.75 1815.6875 C183.65096436 1815.49293213 183.65096436 1815.49293213 185.59033203 1815.29443359 C205.94997254 1813.12623761 226.04573157 1809.5626775 246 1805 C247.16208984 1804.73767578 248.32417969 1804.47535156 249.52148438 1804.20507812 C311.72750833 1789.91584292 380.13968486 1758.28735251 416 1703 C422.56756489 1692.47979864 427.78244599 1681.65166029 432 1670 C432.36609375 1669.09121094 432.7321875 1668.18242187 433.109375 1667.24609375 C442.35544148 1642.81514117 444.22181142 1611.28951797 438 1586 C437.7215625 1584.77410156 437.443125 1583.54820313 437.15625 1582.28515625 C430.0570785 1553.12347331 413.31798785 1528.43341196 393.2890625 1506.51171875 C391.74739771 1504.8200968 390.22154556 1503.11394349 388.7109375 1501.39453125 C384.7416324 1496.88643731 380.73446071 1492.69852202 376.140625 1488.828125 C373.65232957 1486.70308438 371.27132626 1484.47816301 368.875 1482.25 C353.80775365 1468.54499784 336.93691944 1456.15191269 319.8125 1445.16552734 C318.44747973 1444.28775165 317.08611527 1443.40428691 315.7265625 1442.51806641 C301.78880186 1433.43439894 287.58708498 1424.99564411 273 1417 C271.94103516 1416.41637695 270.88207031 1415.83275391 269.79101562 1415.23144531 C222.39602962 1389.18239955 172.83531277 1368.24870419 122.35107422 1348.99560547 C66.04969202 1327.43880962 10.40580767 1304.05098978 -43.95819092 1277.97857666 C-46.02473974 1276.988143 -48.09255595 1276.00039765 -50.16064453 1275.01318359 C-76.25459687 1262.54756581 -102.13894631 1249.7008424 -127.2265625 1235.296875 C-131.45030081 1232.87276514 -135.6973536 1230.49376973 -139.9609375 1228.140625 C-140.85492249 1227.64678062 -140.85492249 1227.64678062 -141.76696777 1227.14295959 C-144.65223192 1225.54990085 -147.53925067 1223.96020091 -150.42871094 1222.37475586 C-158.09864348 1218.13946166 -165.56150684 1213.62754743 -173 1209 C-174.53098919 1208.07033797 -176.06338208 1207.14298059 -177.59765625 1206.21875 C-189.34743699 1199.08870967 -200.81427802 1191.55728084 -212.25 1183.9375 C-213.00241974 1183.43702148 -213.75483948 1182.93654297 -214.53005981 1182.42089844 C-231.04462943 1171.42543673 -247.21182578 1160.01588843 -263 1148 C-263.58797363 1147.55382324 -264.17594727 1147.10764648 -264.78173828 1146.64794922 C-271.39439372 1141.62518088 -277.9127264 1136.50322377 -284.31640625 1131.21484375 C-286.12919392 1129.71870021 -287.94974557 1128.23192165 -289.77734375 1126.75390625 C-295.22031715 1122.34914377 -300.50271313 1117.81992346 -305.6796875 1113.10546875 C-307.70154184 1111.27082315 -309.74678522 1109.47231214 -311.8125 1107.6875 C-321.94944067 1098.83363135 -331.63476114 1089.53038798 -341.13183594 1079.99853516 C-342.8914348 1078.23351456 -344.65640397 1076.47398867 -346.421875 1074.71484375 C-352.16118565 1068.97925571 -357.77009954 1063.2107269 -363 1057 C-363.96087879 1055.89334824 -364.923088 1054.78785004 -365.88671875 1053.68359375 C-392.6362586 1022.7595974 -414.5430541 989.46193921 -433 953 C-433.38430176 952.24750977 -433.76860352 951.49501953 -434.16455078 950.71972656 C-440.14192029 938.93048924 -444.56443952 926.64901139 -448.88647461 914.17163086 C-449.65828178 911.97330879 -450.4495354 909.78175469 -451.25610352 907.59594727 C-454.19858968 899.59441074 -456.58964231 891.60518021 -458.5625 883.3125 C-458.85987061 882.07008545 -459.15724121 880.8276709 -459.46362305 879.54760742 C-462.420652 866.80473884 -464.39871161 853.97538839 -466 841 C-466.26707764 839.04658691 -466.26707764 839.04658691 -466.53955078 837.05371094 C-468.2129106 824.24574288 -468.31448857 811.52671523 -468.25 798.625 C-468.24689819 797.52227753 -468.24379639 796.41955505 -468.24060059 795.28341675 C-468.12588227 760.48500104 -464.31326412 727.03436242 -457 693 C-456.81888672 692.12778809 -456.63777344 691.25557617 -456.45117188 690.35693359 C-452.99208951 673.80503303 -447.56718677 657.93631128 -442 642 C-441.57267578 640.76443359 -441.57267578 640.76443359 -441.13671875 639.50390625 C-431.19338863 610.9500652 -417.40233626 583.37263397 -401 558 C-400.5167627 557.25169922 -400.03352539 556.50339844 -399.53564453 555.73242188 C-383.77161761 531.45797495 -366.06563184 508.68907486 -346.37060547 487.48388672 C-344.99913072 485.99905887 -343.6403739 484.50357634 -342.28515625 483.00390625 C-334.00246217 473.85146239 -325.52494931 464.84071774 -316.11328125 456.83203125 C-313.94358251 454.95109093 -311.8353431 453.01085261 -309.73120117 451.05712891 C-303.68281795 445.44589753 -297.44359819 440.15658321 -291 435 C-289.86916043 434.07759625 -288.73898485 433.15437804 -287.609375 432.23046875 C-255.97285442 406.4685685 -221.10034017 384.89323192 -185 366 C-183.67814697 365.30511475 -183.67814697 365.30511475 -182.32958984 364.59619141 C-136.16675513 340.47843012 -86.2398656 322.50232474 -36 309 C-34.18357435 308.50397729 -32.36716702 308.00788749 -30.55078125 307.51171875 C-6.47581393 301 -6.47581393 301 0 301 C0 201.67 0 102.34 0 0 Z " fill="#fff200" transform="translate(2358,1265)"/>
 
</svg>
